<?xml version="1.0" standalone="no"?>
<!DOCTYPE svg PUBLIC "-//W3C//DTD SVG 20010904//EN"
 "http://www.w3.org/TR/2001/REC-SVG-20010904/DTD/svg10.dtd">
<svg version="1.0" xmlns="http://www.w3.org/2000/svg"
 width="147.000000pt" height="47.000000pt" viewBox="0 0 147.000000 47.000000"
 preserveAspectRatio="xMidYMid meet">

<g transform="translate(0.000000,47.000000) scale(0.100000,-0.100000)"
fill="#313237" stroke="none">
<path d="M224 293 c24 -99 26 -103 51 -103 18 0 26 7 31 25 8 32 20 32 28 -1
5 -20 12 -25 33 -22 28 3 32 12 47 91 6 33 5 37 -13 37 -15 0 -22 -10 -29 -42
l-9 -43 -13 43 c-9 27 -19 42 -30 42 -11 0 -21 -15 -30 -42 l-13 -43 -9 43
c-7 33 -14 42 -30 42 -17 0 -19 -4 -14 -27z"/>
<path d="M1125 310 c-3 -5 -1 -10 5 -10 7 0 9 -7 6 -16 -5 -12 -2 -15 10 -10
8 3 18 6 20 6 2 0 4 9 4 20 0 21 -33 29 -45 10z"/>
<path d="M437 273 c-4 -3 -7 -21 -7 -40 0 -27 5 -35 26 -43 36 -14 42 -13 69
14 21 21 24 21 28 6 12 -45 107 -25 107 23 0 12 3 17 8 11 4 -6 16 -16 27 -23
19 -12 19 -12 -2 -8 -16 4 -23 0 -23 -9 0 -21 25 -28 61 -15 18 6 38 7 47 2
10 -4 34 -6 55 -4 36 5 37 6 37 49 0 37 -3 44 -19 44 -14 0 -21 -8 -23 -27 -2
-16 -7 -28 -13 -28 -5 0 -11 12 -13 28 -2 19 -9 27 -23 27 -15 0 -19 -7 -19
-30 0 -29 -1 -30 -22 -18 -20 10 -21 13 -5 16 9 2 17 10 17 18 0 18 -61 19
-78 2 -9 -9 -15 -9 -24 0 -7 7 -30 12 -51 12 -31 0 -40 -4 -44 -20 l-6 -21
-14 21 c-10 14 -25 20 -52 20 -21 0 -41 -3 -44 -7z m63 -32 c0 -14 -18 -23
-30 -16 -6 4 -8 11 -5 16 8 12 35 12 35 0z m120 0 c0 -14 -18 -23 -30 -16 -6
4 -8 11 -5 16 8 12 35 12 35 0z"/>
<path d="M880 235 c0 -38 3 -45 20 -45 15 0 20 7 20 25 0 14 5 25 10 25 6 0
10 -11 10 -25 0 -18 5 -25 20 -25 17 0 20 7 20 45 l0 45 -50 0 -50 0 0 -45z"/>
<path d="M1002 268 c-16 -16 -15 -53 1 -66 6 -6 26 -12 42 -15 l30 -4 -32 -2
c-18 0 -33 -5 -33 -10 0 -13 37 -20 67 -12 29 8 40 32 42 89 l1 32 -53 0 c-29
0 -58 -5 -65 -12z m73 -18 c3 -6 -1 -13 -10 -16 -19 -8 -30 0 -20 15 8 14 22
14 30 1z"/>
<path d="M1183 264 c-4 -11 3 -24 18 -36 24 -20 24 -20 2 -15 -28 6 -32 -19
-4 -28 19 -6 71 9 71 21 0 4 -7 16 -17 26 -9 11 -11 18 -5 18 7 0 12 7 12 15
0 22 -68 21 -77 -1z"/>
</g>
</svg>
